<?xml version="1.0" standalone="no"?>
<!DOCTYPE svg PUBLIC "-//W3C//DTD SVG 20010904//EN"
 "http://www.w3.org/TR/2001/REC-SVG-20010904/DTD/svg10.dtd">
<svg version="1.0" xmlns="http://www.w3.org/2000/svg"
 width="512.000000pt" height="512.000000pt" viewBox="0 0 512.000000 512.000000"
 preserveAspectRatio="xMidYMid meet">
<metadata>
Created by potrace 1.11, written by Peter Selinger 2001-2013
</metadata>
<g transform="translate(0.000000,512.000000) scale(0.100000,-0.100000)"
fill="#000000" stroke="none">
<path d="M390 5104 c-30 -8 -80 -26 -110 -41 -72 -35 -188 -151 -223 -223 -61
-126 -57 23 -57 -2280 0 -2303 -4 -2154 57 -2280 35 -72 151 -188 223 -223
126 -61 -23 -57 2280 -57 2303 0 2154 -4 2280 57 72 35 188 151 223 223 61
126 57 -23 57 2280 0 2303 4 2154 -57 2280 -35 72 -151 188 -223 223 -127 61
23 57 -2285 56 -1816 0 -2118 -2 -2165 -15z m2350 -1109 c353 -50 593 -198
710 -440 105 -217 91 -523 -33 -735 -46 -79 -169 -198 -247 -239 -61 -33 -63
-35 -40 -44 148 -58 261 -128 345 -213 151 -154 214 -337 187 -543 -26 -194
-96 -338 -223 -456 -101 -95 -233 -155 -429 -197 -89 -20 -135 -21 -791 -25
l-696 -4 -21 56 c-12 31 -22 62 -22 69 0 6 30 19 68 29 133 35 217 94 249 176
17 43 18 116 21 1129 l3 1082 -25 25 c-24 24 -30 25 -159 25 l-133 0 -23 71
c-13 39 -19 75 -14 79 38 35 449 128 698 159 122 15 454 12 575 -4z"/>
<path d="M2358 3781 c-55 -18 -100 -54 -119 -95 -18 -39 -19 -86 -19 -991 0
-941 3 -1030 35 -1141 44 -153 195 -245 405 -246 187 -1 318 48 429 159 112
114 161 243 161 429 0 161 -46 279 -153 385 -116 116 -235 160 -479 178 -160
12 -247 32 -282 68 -29 29 -38 70 -22 103 l11 25 160 -3 c253 -6 369 30 490
152 103 103 155 240 155 411 0 270 -142 465 -395 545 -55 18 -100 23 -210 26
-77 2 -152 0 -167 -5z"/>
</g>
</svg>
